<svg version="1.0" xmlns="http://www.w3.org/2000/svg" width="682.667" height="682.667" viewBox="0 0 512 512"><path d="M236.1 122.6c-8.2 3-13.3 6.9-16.2 12.6-3.8 7.3-1.5 16.7 5.3 22.2 6.7 5.5 7.8 6.8 7.8 9.7 0 3.3-3.4 6.9-6.5 6.9-10.3 0-46.3-4-63.2-6.9-5.7-1-10.3-1.7-10.3-1.6 0 .2-.7 3.9-1.5 8.2-3.6 18.7-5.7 34.5-7.5 55.7-1.1 12.6-1.1 12.9 1.1 15.2 1.2 1.3 3.3 2.4 4.7 2.4 2.2 0 3.8-1.3 10.6-8.9 4-4.4 8.1-6.3 13.9-6.3 16.1 0 26.5 24.9 18.8 45.1-6.5 17.1-22.1 21.9-32.7 10-8.8-9.9-11-10.8-15.2-6.9-2 1.9-2.2 3.1-2.2 11.8 0 9.5 2.1 34.9 4.1 48.7 1.9 13.9 4.1 26 4.8 26.8 1.8 1.8 38.7 7.1 61.4 8.7 15.3 1 18 .5 19.5-4 1.3-3.7-.8-7.7-5.9-11.3-13.2-9.1-11-25.6 4.4-33.1 20.6-10 48.7.3 48.7 17.9 0 5.7-2.3 9.8-8.9 15.5-5.1 4.5-6.1 5.8-6.1 8.6 0 2.4.7 3.8 2.7 5.4 3.1 2.4 7 2.4 35.8-.5 18.3-1.9 49-6.6 50-7.7.2-.2-.5-5.3-1.6-11.3-4.1-23.7-7.3-61.4-5.6-65.1 1.3-2.9 5.1-4.6 7.9-3.5 1.3.5 4.3 3.2 6.7 6.1 7.2 8.6 14.7 10.8 22.8 6.9 9.4-4.5 14.6-15.1 14.6-29.4 0-14.3-5.2-24.9-14.6-29.4-8.4-4.1-15.3-1.9-23.3 7.3-2.6 3-5.4 5.7-6.3 5.9-2.7.6-6.8-1.3-7.9-3.7-1.9-4.3 2.2-46.8 7.2-73.6 1.3-6.9 2.2-12.7 2-12.9-.2-.2-5.2.6-11.1 1.7-18.4 3.6-39.5 6.1-64.5 7.7-9.5.7-9.8.6-12.3-1.9-3.9-3.9-3.2-6.2 3.9-13 3.5-3.4 7-7.2 7.6-8.5 1.7-3.4 1.5-11.2-.3-14.8-2.1-4.1-8-9-13.6-11.6-6.3-2.8-22.7-3.4-29-1.1z"/></svg>